<mxfile host="app.diagrams.net" modified="2023-10-29T18:14:44.535Z" agent="Mozilla/5.0 (Windows NT 10.0; Win64; x64) AppleWebKit/537.36 (KHTML, like Gecko) Chrome/116.0.0.0 Safari/537.36 OPR/102.0.0.0" etag="_1ad6jFAMOzTw5UmiCe7" version="22.0.8" type="device">
  <diagram name="Сторінка-1" id="uJ4mQqsSs4CXYdfPLRIr">
    <mxGraphModel dx="1548" dy="893" grid="1" gridSize="10" guides="1" tooltips="1" connect="1" arrows="1" fold="1" page="1" pageScale="1" pageWidth="1200" pageHeight="30000" math="0" shadow="0">
      <root>
        <mxCell id="0" />
        <mxCell id="1" parent="0" />
        <mxCell id="XefmnypE6_ZuSq_uZl9b-258" value="Локальна копія" style="verticalAlign=top;align=left;spacingTop=8;spacingLeft=2;spacingRight=12;shape=cube;size=10;direction=south;fontStyle=4;html=1;whiteSpace=wrap;" vertex="1" parent="1">
          <mxGeometry x="200" y="155" width="180" height="185" as="geometry" />
        </mxCell>
        <mxCell id="XefmnypE6_ZuSq_uZl9b-259" value="Власник" style="shape=module;align=left;spacingLeft=20;align=center;verticalAlign=top;whiteSpace=wrap;html=1;" vertex="1" parent="1">
          <mxGeometry x="230" y="200" width="100" height="50" as="geometry" />
        </mxCell>
        <mxCell id="XefmnypE6_ZuSq_uZl9b-260" value="Локальний репозиторій" style="verticalAlign=top;align=left;spacingTop=8;spacingLeft=2;spacingRight=12;shape=cube;size=10;direction=south;fontStyle=4;html=1;whiteSpace=wrap;" vertex="1" parent="1">
          <mxGeometry x="770" y="130" width="190" height="250" as="geometry" />
        </mxCell>
        <mxCell id="XefmnypE6_ZuSq_uZl9b-261" value="Копія" style="shape=module;align=left;spacingLeft=20;align=center;verticalAlign=top;whiteSpace=wrap;html=1;" vertex="1" parent="1">
          <mxGeometry x="810" y="190" width="120" height="50" as="geometry" />
        </mxCell>
        <mxCell id="XefmnypE6_ZuSq_uZl9b-262" value="ID" style="shape=module;align=left;spacingLeft=20;align=center;verticalAlign=top;whiteSpace=wrap;html=1;" vertex="1" parent="1">
          <mxGeometry x="810" y="250" width="120" height="50" as="geometry" />
        </mxCell>
        <mxCell id="XefmnypE6_ZuSq_uZl9b-263" value="Сервер" style="verticalAlign=top;align=left;spacingTop=8;spacingLeft=2;spacingRight=12;shape=cube;size=10;direction=south;fontStyle=4;html=1;whiteSpace=wrap;" vertex="1" parent="1">
          <mxGeometry x="495" y="530" width="180" height="260" as="geometry" />
        </mxCell>
        <mxCell id="XefmnypE6_ZuSq_uZl9b-264" value="Копії" style="shape=module;align=left;spacingLeft=20;align=center;verticalAlign=top;whiteSpace=wrap;html=1;" vertex="1" parent="1">
          <mxGeometry x="535" y="580" width="100" height="50" as="geometry" />
        </mxCell>
        <mxCell id="XefmnypE6_ZuSq_uZl9b-265" value="Репозиторії" style="shape=module;align=left;spacingLeft=20;align=center;verticalAlign=top;whiteSpace=wrap;html=1;" vertex="1" parent="1">
          <mxGeometry x="535" y="650" width="100" height="50" as="geometry" />
        </mxCell>
        <mxCell id="XefmnypE6_ZuSq_uZl9b-266" value="" style="endArrow=none;html=1;rounded=0;entryX=0;entryY=0;entryDx=55;entryDy=0;entryPerimeter=0;exitX=0.288;exitY=0.989;exitDx=0;exitDy=0;exitPerimeter=0;" edge="1" parent="1" source="XefmnypE6_ZuSq_uZl9b-260" target="XefmnypE6_ZuSq_uZl9b-258">
          <mxGeometry width="50" height="50" relative="1" as="geometry">
            <mxPoint x="533" y="400" as="sourcePoint" />
            <mxPoint x="458" y="286" as="targetPoint" />
          </mxGeometry>
        </mxCell>
        <mxCell id="XefmnypE6_ZuSq_uZl9b-267" value="Оновлення/отримання даних" style="text;html=1;strokeColor=none;fillColor=none;align=center;verticalAlign=middle;whiteSpace=wrap;rounded=0;" vertex="1" parent="1">
          <mxGeometry x="595" y="170" width="80" height="50" as="geometry" />
        </mxCell>
        <mxCell id="XefmnypE6_ZuSq_uZl9b-268" value="Надання доступу" style="endArrow=open;endSize=12;dashed=1;html=1;rounded=0;entryX=0.776;entryY=-0.041;entryDx=0;entryDy=0;entryPerimeter=0;exitX=0.426;exitY=1.008;exitDx=0;exitDy=0;exitPerimeter=0;" edge="1" parent="1" source="XefmnypE6_ZuSq_uZl9b-260" target="XefmnypE6_ZuSq_uZl9b-258">
          <mxGeometry x="-0.0013" width="160" relative="1" as="geometry">
            <mxPoint x="520" y="340" as="sourcePoint" />
            <mxPoint x="680" y="340" as="targetPoint" />
            <Array as="points">
              <mxPoint x="610" y="270" />
            </Array>
            <mxPoint as="offset" />
          </mxGeometry>
        </mxCell>
        <mxCell id="XefmnypE6_ZuSq_uZl9b-269" value="" style="endArrow=none;html=1;rounded=0;entryX=1.007;entryY=0.65;entryDx=0;entryDy=0;entryPerimeter=0;exitX=0;exitY=0;exitDx=90;exitDy=0;exitPerimeter=0;" edge="1" parent="1" source="XefmnypE6_ZuSq_uZl9b-263" target="XefmnypE6_ZuSq_uZl9b-260">
          <mxGeometry width="50" height="50" relative="1" as="geometry">
            <mxPoint x="550" y="390" as="sourcePoint" />
            <mxPoint x="600" y="340" as="targetPoint" />
          </mxGeometry>
        </mxCell>
        <mxCell id="XefmnypE6_ZuSq_uZl9b-270" value="Оновлення/отримання даних" style="edgeLabel;html=1;align=center;verticalAlign=middle;resizable=0;points=[];" connectable="0" vertex="1" parent="XefmnypE6_ZuSq_uZl9b-269">
          <mxGeometry x="0.2208" y="2" relative="1" as="geometry">
            <mxPoint x="20" y="13" as="offset" />
          </mxGeometry>
        </mxCell>
        <mxCell id="XefmnypE6_ZuSq_uZl9b-271" value="Надання доступу" style="endArrow=open;endSize=12;dashed=1;html=1;rounded=0;entryX=0.929;entryY=1.006;entryDx=0;entryDy=0;entryPerimeter=0;exitX=0.016;exitY=0.272;exitDx=0;exitDy=0;exitPerimeter=0;" edge="1" parent="1" source="XefmnypE6_ZuSq_uZl9b-263" target="XefmnypE6_ZuSq_uZl9b-260">
          <mxGeometry x="-0.0013" width="160" relative="1" as="geometry">
            <mxPoint x="662" y="391" as="sourcePoint" />
            <mxPoint x="280" y="390" as="targetPoint" />
            <Array as="points" />
            <mxPoint as="offset" />
          </mxGeometry>
        </mxCell>
        <mxCell id="XefmnypE6_ZuSq_uZl9b-272" value="Дані про копію" style="shape=module;align=left;spacingLeft=20;align=center;verticalAlign=top;whiteSpace=wrap;html=1;" vertex="1" parent="1">
          <mxGeometry x="230" y="270" width="100" height="50" as="geometry" />
        </mxCell>
        <mxCell id="XefmnypE6_ZuSq_uZl9b-273" value="Дані про користувачів" style="shape=module;align=left;spacingLeft=20;align=center;verticalAlign=top;whiteSpace=wrap;html=1;" vertex="1" parent="1">
          <mxGeometry x="535" y="720" width="100" height="50" as="geometry" />
        </mxCell>
        <mxCell id="XefmnypE6_ZuSq_uZl9b-274" value="Дані про репозиторій" style="shape=module;align=left;spacingLeft=20;align=center;verticalAlign=top;whiteSpace=wrap;html=1;" vertex="1" parent="1">
          <mxGeometry x="810" y="310" width="120" height="50" as="geometry" />
        </mxCell>
        <mxCell id="XefmnypE6_ZuSq_uZl9b-278" value="&lt;p style=&quot;margin:0px;margin-top:6px;text-align:center;&quot;&gt;&lt;b&gt;Копія для завантаження&lt;/b&gt;&lt;/p&gt;" style="align=left;overflow=fill;html=1;dropTarget=0;whiteSpace=wrap;" vertex="1" parent="1">
          <mxGeometry x="394" y="1020" width="140" height="60" as="geometry" />
        </mxCell>
        <mxCell id="XefmnypE6_ZuSq_uZl9b-279" value="" style="shape=component;jettyWidth=8;jettyHeight=4;" vertex="1" parent="XefmnypE6_ZuSq_uZl9b-278">
          <mxGeometry x="1" width="20" height="20" relative="1" as="geometry">
            <mxPoint x="-24" y="4" as="offset" />
          </mxGeometry>
        </mxCell>
        <mxCell id="XefmnypE6_ZuSq_uZl9b-280" value="&lt;p style=&quot;margin:0px;margin-top:6px;text-align:center;&quot;&gt;&lt;b&gt;Користувач&lt;/b&gt;&lt;/p&gt;" style="align=left;overflow=fill;html=1;dropTarget=0;whiteSpace=wrap;" vertex="1" parent="1">
          <mxGeometry x="694" y="1020" width="140" height="60" as="geometry" />
        </mxCell>
        <mxCell id="XefmnypE6_ZuSq_uZl9b-281" value="" style="shape=component;jettyWidth=8;jettyHeight=4;" vertex="1" parent="XefmnypE6_ZuSq_uZl9b-280">
          <mxGeometry x="1" width="20" height="20" relative="1" as="geometry">
            <mxPoint x="-24" y="4" as="offset" />
          </mxGeometry>
        </mxCell>
        <mxCell id="XefmnypE6_ZuSq_uZl9b-282" value="&lt;p style=&quot;margin:0px;margin-top:6px;text-align:center;&quot;&gt;&lt;b&gt;Копія&lt;/b&gt;&lt;/p&gt;" style="align=left;overflow=fill;html=1;dropTarget=0;whiteSpace=wrap;" vertex="1" parent="1">
          <mxGeometry x="394" y="1190" width="140" height="30" as="geometry" />
        </mxCell>
        <mxCell id="XefmnypE6_ZuSq_uZl9b-283" value="" style="shape=component;jettyWidth=8;jettyHeight=4;" vertex="1" parent="XefmnypE6_ZuSq_uZl9b-282">
          <mxGeometry x="1" width="20" height="20" relative="1" as="geometry">
            <mxPoint x="-24" y="4" as="offset" />
          </mxGeometry>
        </mxCell>
        <mxCell id="XefmnypE6_ZuSq_uZl9b-284" value="" style="ellipse;whiteSpace=wrap;html=1;aspect=fixed;" vertex="1" parent="1">
          <mxGeometry x="414" y="1090" width="10" height="10" as="geometry" />
        </mxCell>
        <mxCell id="XefmnypE6_ZuSq_uZl9b-285" value="&lt;font style=&quot;font-size: 10px;&quot;&gt;Користувач&lt;/font&gt;" style="text;html=1;strokeColor=none;fillColor=none;align=center;verticalAlign=middle;whiteSpace=wrap;rounded=0;" vertex="1" parent="1">
          <mxGeometry x="547" y="1005" width="60" height="30" as="geometry" />
        </mxCell>
        <mxCell id="XefmnypE6_ZuSq_uZl9b-286" value="&lt;font style=&quot;font-size: 10px;&quot;&gt;Користувач&lt;/font&gt;" style="text;html=1;strokeColor=none;fillColor=none;align=center;verticalAlign=middle;whiteSpace=wrap;rounded=0;" vertex="1" parent="1">
          <mxGeometry x="654" y="1010" width="35" height="20" as="geometry" />
        </mxCell>
        <mxCell id="XefmnypE6_ZuSq_uZl9b-287" value="" style="rounded=0;whiteSpace=wrap;html=1;" vertex="1" parent="1">
          <mxGeometry x="844" y="1170" width="10" height="10" as="geometry" />
        </mxCell>
        <mxCell id="XefmnypE6_ZuSq_uZl9b-288" value="" style="ellipse;whiteSpace=wrap;html=1;" vertex="1" parent="1">
          <mxGeometry x="934" y="1170" width="10" height="10" as="geometry" />
        </mxCell>
        <mxCell id="XefmnypE6_ZuSq_uZl9b-289" value="" style="endArrow=none;html=1;rounded=0;entryX=0;entryY=0.5;entryDx=0;entryDy=0;exitX=1;exitY=0.5;exitDx=0;exitDy=0;" edge="1" parent="1" source="XefmnypE6_ZuSq_uZl9b-287" target="XefmnypE6_ZuSq_uZl9b-288">
          <mxGeometry width="50" height="50" relative="1" as="geometry">
            <mxPoint x="894" y="1180" as="sourcePoint" />
            <mxPoint x="774" y="1160" as="targetPoint" />
          </mxGeometry>
        </mxCell>
        <mxCell id="XefmnypE6_ZuSq_uZl9b-290" value="" style="ellipse;whiteSpace=wrap;html=1;" vertex="1" parent="1">
          <mxGeometry x="759" y="1110" width="10" height="10" as="geometry" />
        </mxCell>
        <mxCell id="XefmnypE6_ZuSq_uZl9b-291" value="" style="endArrow=none;html=1;rounded=0;entryX=0.5;entryY=1;entryDx=0;entryDy=0;" edge="1" parent="1" target="XefmnypE6_ZuSq_uZl9b-280">
          <mxGeometry width="50" height="50" relative="1" as="geometry">
            <mxPoint x="764" y="1110" as="sourcePoint" />
            <mxPoint x="804" y="1170" as="targetPoint" />
          </mxGeometry>
        </mxCell>
        <mxCell id="XefmnypE6_ZuSq_uZl9b-292" value="Аккаунт" style="text;html=1;strokeColor=none;fillColor=none;align=center;verticalAlign=middle;whiteSpace=wrap;rounded=0;" vertex="1" parent="1">
          <mxGeometry x="844" y="1180" width="60" height="30" as="geometry" />
        </mxCell>
        <mxCell id="XefmnypE6_ZuSq_uZl9b-293" value="Аккаунт" style="text;html=1;strokeColor=none;fillColor=none;align=center;verticalAlign=middle;whiteSpace=wrap;rounded=0;" vertex="1" parent="1">
          <mxGeometry x="699" y="1090" width="60" height="30" as="geometry" />
        </mxCell>
        <mxCell id="XefmnypE6_ZuSq_uZl9b-294" value="" style="endArrow=classic;html=1;rounded=0;entryX=1;entryY=1;entryDx=0;entryDy=0;exitX=0;exitY=0;exitDx=0;exitDy=0;" edge="1" parent="1" source="XefmnypE6_ZuSq_uZl9b-287" target="XefmnypE6_ZuSq_uZl9b-290">
          <mxGeometry width="50" height="50" relative="1" as="geometry">
            <mxPoint x="884" y="1170" as="sourcePoint" />
            <mxPoint x="794" y="1170" as="targetPoint" />
          </mxGeometry>
        </mxCell>
        <mxCell id="XefmnypE6_ZuSq_uZl9b-295" style="edgeStyle=orthogonalEdgeStyle;rounded=0;orthogonalLoop=1;jettySize=auto;html=1;entryX=0.996;entryY=0.179;entryDx=0;entryDy=0;entryPerimeter=0;" edge="1" parent="1" source="XefmnypE6_ZuSq_uZl9b-296" target="XefmnypE6_ZuSq_uZl9b-278">
          <mxGeometry relative="1" as="geometry">
            <mxPoint x="580" y="1050" as="targetPoint" />
            <Array as="points">
              <mxPoint x="540" y="1030" />
            </Array>
          </mxGeometry>
        </mxCell>
        <mxCell id="XefmnypE6_ZuSq_uZl9b-296" value="" style="ellipse;whiteSpace=wrap;html=1;" vertex="1" parent="1">
          <mxGeometry x="549.5" y="1025" width="10" height="10" as="geometry" />
        </mxCell>
        <mxCell id="XefmnypE6_ZuSq_uZl9b-297" value="" style="endArrow=classic;html=1;rounded=0;entryX=1;entryY=0.5;entryDx=0;entryDy=0;exitX=0;exitY=0.5;exitDx=0;exitDy=0;" edge="1" parent="1">
          <mxGeometry width="50" height="50" relative="1" as="geometry">
            <mxPoint x="694" y="1030" as="sourcePoint" />
            <mxPoint x="559" y="1030" as="targetPoint" />
          </mxGeometry>
        </mxCell>
        <mxCell id="XefmnypE6_ZuSq_uZl9b-298" value="Вхід" style="text;html=1;strokeColor=none;fillColor=none;align=center;verticalAlign=middle;whiteSpace=wrap;rounded=0;" vertex="1" parent="1">
          <mxGeometry x="909" y="1145" width="60" height="30" as="geometry" />
        </mxCell>
        <mxCell id="XefmnypE6_ZuSq_uZl9b-299" value="" style="ellipse;whiteSpace=wrap;html=1;aspect=fixed;" vertex="1" parent="1">
          <mxGeometry x="493" y="1090" width="10" height="10" as="geometry" />
        </mxCell>
        <mxCell id="XefmnypE6_ZuSq_uZl9b-300" value="&lt;font style=&quot;font-size: 10px;&quot;&gt;Рівень доступу&lt;/font&gt;" style="text;html=1;strokeColor=none;fillColor=none;align=center;verticalAlign=middle;whiteSpace=wrap;rounded=0;" vertex="1" parent="1">
          <mxGeometry x="545" y="1050" width="86" height="30" as="geometry" />
        </mxCell>
        <mxCell id="XefmnypE6_ZuSq_uZl9b-301" value="&lt;font style=&quot;font-size: 10px;&quot;&gt;Рівень доступу&lt;/font&gt;" style="text;html=1;strokeColor=none;fillColor=none;align=center;verticalAlign=middle;whiteSpace=wrap;rounded=0;" vertex="1" parent="1">
          <mxGeometry x="610" y="1070" width="79" height="20" as="geometry" />
        </mxCell>
        <mxCell id="XefmnypE6_ZuSq_uZl9b-302" value="" style="ellipse;whiteSpace=wrap;html=1;" vertex="1" parent="1">
          <mxGeometry x="549.5" y="1070" width="10" height="10" as="geometry" />
        </mxCell>
        <mxCell id="XefmnypE6_ZuSq_uZl9b-303" value="" style="endArrow=classic;html=1;rounded=0;entryX=1;entryY=0.5;entryDx=0;entryDy=0;exitX=0;exitY=0.5;exitDx=0;exitDy=0;" edge="1" parent="1" target="XefmnypE6_ZuSq_uZl9b-302">
          <mxGeometry width="50" height="50" relative="1" as="geometry">
            <mxPoint x="694" y="1075" as="sourcePoint" />
            <mxPoint x="624" y="1110" as="targetPoint" />
          </mxGeometry>
        </mxCell>
        <mxCell id="XefmnypE6_ZuSq_uZl9b-304" value="" style="endArrow=classic;html=1;rounded=0;exitX=0.17;exitY=0.01;exitDx=0;exitDy=0;exitPerimeter=0;entryX=0.5;entryY=1;entryDx=0;entryDy=0;" edge="1" parent="1" source="XefmnypE6_ZuSq_uZl9b-282" target="XefmnypE6_ZuSq_uZl9b-284">
          <mxGeometry width="50" height="50" relative="1" as="geometry">
            <mxPoint x="494" y="1180" as="sourcePoint" />
            <mxPoint x="544" y="1130" as="targetPoint" />
          </mxGeometry>
        </mxCell>
        <mxCell id="XefmnypE6_ZuSq_uZl9b-305" value="" style="endArrow=classic;html=1;rounded=0;exitX=0.75;exitY=0;exitDx=0;exitDy=0;entryX=0.5;entryY=1;entryDx=0;entryDy=0;" edge="1" parent="1" source="XefmnypE6_ZuSq_uZl9b-282" target="XefmnypE6_ZuSq_uZl9b-299">
          <mxGeometry width="50" height="50" relative="1" as="geometry">
            <mxPoint x="428" y="1200" as="sourcePoint" />
            <mxPoint x="429" y="1110" as="targetPoint" />
          </mxGeometry>
        </mxCell>
        <mxCell id="XefmnypE6_ZuSq_uZl9b-306" value="" style="endArrow=none;html=1;rounded=0;entryX=0.75;entryY=1;entryDx=0;entryDy=0;" edge="1" parent="1" target="XefmnypE6_ZuSq_uZl9b-278">
          <mxGeometry width="50" height="50" relative="1" as="geometry">
            <mxPoint x="499" y="1090" as="sourcePoint" />
            <mxPoint x="544" y="1130" as="targetPoint" />
          </mxGeometry>
        </mxCell>
        <mxCell id="XefmnypE6_ZuSq_uZl9b-307" value="" style="endArrow=none;html=1;rounded=0;entryX=0.179;entryY=0.943;entryDx=0;entryDy=0;exitX=0.5;exitY=0;exitDx=0;exitDy=0;entryPerimeter=0;" edge="1" parent="1" source="XefmnypE6_ZuSq_uZl9b-284" target="XefmnypE6_ZuSq_uZl9b-278">
          <mxGeometry width="50" height="50" relative="1" as="geometry">
            <mxPoint x="509" y="1100" as="sourcePoint" />
            <mxPoint x="509" y="1090" as="targetPoint" />
          </mxGeometry>
        </mxCell>
        <mxCell id="XefmnypE6_ZuSq_uZl9b-308" value="Дані про копію" style="text;html=1;strokeColor=none;fillColor=none;align=center;verticalAlign=middle;whiteSpace=wrap;rounded=0;" vertex="1" parent="1">
          <mxGeometry x="354" y="1080" width="60" height="30" as="geometry" />
        </mxCell>
        <mxCell id="XefmnypE6_ZuSq_uZl9b-309" value="&lt;font style=&quot;font-size: 10px;&quot;&gt;Обрані дані для завантаження&lt;/font&gt;" style="text;html=1;strokeColor=none;fillColor=none;align=center;verticalAlign=middle;whiteSpace=wrap;rounded=0;" vertex="1" parent="1">
          <mxGeometry x="503" y="1090" width="84" height="30" as="geometry" />
        </mxCell>
        <mxCell id="XefmnypE6_ZuSq_uZl9b-310" value="&lt;font style=&quot;font-size: 10px;&quot;&gt;Делегат&lt;/font&gt;" style="text;html=1;strokeColor=none;fillColor=none;align=center;verticalAlign=middle;whiteSpace=wrap;rounded=0;" vertex="1" parent="1">
          <mxGeometry x="834" y="1145" width="35" height="20" as="geometry" />
        </mxCell>
        <mxCell id="XefmnypE6_ZuSq_uZl9b-311" value="&lt;font style=&quot;font-size: 10px;&quot;&gt;Обрані дані для завантаження&lt;/font&gt;" style="text;html=1;strokeColor=none;fillColor=none;align=center;verticalAlign=middle;whiteSpace=wrap;rounded=0;" vertex="1" parent="1">
          <mxGeometry x="483" y="1150" width="111" height="30" as="geometry" />
        </mxCell>
        <mxCell id="XefmnypE6_ZuSq_uZl9b-312" value="Дані про копію" style="text;html=1;strokeColor=none;fillColor=none;align=center;verticalAlign=middle;whiteSpace=wrap;rounded=0;" vertex="1" parent="1">
          <mxGeometry x="354" y="1160" width="60" height="30" as="geometry" />
        </mxCell>
        <mxCell id="XefmnypE6_ZuSq_uZl9b-313" value="" style="ellipse;whiteSpace=wrap;html=1;aspect=fixed;" vertex="1" parent="1">
          <mxGeometry x="440" y="1090" width="10" height="10" as="geometry" />
        </mxCell>
        <mxCell id="XefmnypE6_ZuSq_uZl9b-314" value="" style="endArrow=classic;html=1;rounded=0;exitX=0.75;exitY=0;exitDx=0;exitDy=0;entryX=0.5;entryY=1;entryDx=0;entryDy=0;" edge="1" parent="1">
          <mxGeometry width="50" height="50" relative="1" as="geometry">
            <mxPoint x="444" y="1190" as="sourcePoint" />
            <mxPoint x="443" y="1100" as="targetPoint" />
          </mxGeometry>
        </mxCell>
        <mxCell id="XefmnypE6_ZuSq_uZl9b-315" value="&lt;font style=&quot;font-size: 8px;&quot;&gt;Розмір завантаження&lt;/font&gt;" style="text;html=1;strokeColor=none;fillColor=none;align=center;verticalAlign=middle;whiteSpace=wrap;rounded=0;" vertex="1" parent="1">
          <mxGeometry x="450" y="1090" width="45" height="30" as="geometry" />
        </mxCell>
        <mxCell id="XefmnypE6_ZuSq_uZl9b-316" value="&lt;font style=&quot;font-size: 8px;&quot;&gt;Розмір завантаження&lt;/font&gt;" style="text;html=1;strokeColor=none;fillColor=none;align=center;verticalAlign=middle;whiteSpace=wrap;rounded=0;" vertex="1" parent="1">
          <mxGeometry x="450" y="1160" width="45" height="30" as="geometry" />
        </mxCell>
        <mxCell id="XefmnypE6_ZuSq_uZl9b-317" value="" style="endArrow=none;html=1;rounded=0;exitX=0.5;exitY=0;exitDx=0;exitDy=0;entryX=0.39;entryY=0.96;entryDx=0;entryDy=0;entryPerimeter=0;" edge="1" parent="1" source="XefmnypE6_ZuSq_uZl9b-313" target="XefmnypE6_ZuSq_uZl9b-278">
          <mxGeometry width="50" height="50" relative="1" as="geometry">
            <mxPoint x="464" y="1190" as="sourcePoint" />
            <mxPoint x="514" y="1140" as="targetPoint" />
          </mxGeometry>
        </mxCell>
        <mxCell id="XefmnypE6_ZuSq_uZl9b-318" value="" style="ellipse;whiteSpace=wrap;html=1;aspect=fixed;" vertex="1" parent="1">
          <mxGeometry x="324" y="1055" width="10" height="10" as="geometry" />
        </mxCell>
        <mxCell id="XefmnypE6_ZuSq_uZl9b-319" value="" style="endArrow=none;html=1;rounded=0;entryX=1;entryY=0.5;entryDx=0;entryDy=0;exitX=0;exitY=0.5;exitDx=0;exitDy=0;" edge="1" parent="1" source="XefmnypE6_ZuSq_uZl9b-278" target="XefmnypE6_ZuSq_uZl9b-318">
          <mxGeometry width="50" height="50" relative="1" as="geometry">
            <mxPoint x="344" y="1130" as="sourcePoint" />
            <mxPoint x="394" y="1080" as="targetPoint" />
          </mxGeometry>
        </mxCell>
        <mxCell id="XefmnypE6_ZuSq_uZl9b-320" value="" style="rounded=0;whiteSpace=wrap;html=1;" vertex="1" parent="1">
          <mxGeometry x="269" y="1020" width="10" height="10" as="geometry" />
        </mxCell>
        <mxCell id="XefmnypE6_ZuSq_uZl9b-321" value="" style="endArrow=classic;html=1;rounded=0;entryX=-0.002;entryY=0.327;entryDx=0;entryDy=0;entryPerimeter=0;exitX=0;exitY=0;exitDx=0;exitDy=0;" edge="1" parent="1" source="XefmnypE6_ZuSq_uZl9b-318">
          <mxGeometry width="50" height="50" relative="1" as="geometry">
            <mxPoint x="324" y="1130" as="sourcePoint" />
            <mxPoint x="277.8599999999999" y="1024.26" as="targetPoint" />
          </mxGeometry>
        </mxCell>
        <mxCell id="XefmnypE6_ZuSq_uZl9b-322" value="" style="ellipse;whiteSpace=wrap;html=1;aspect=fixed;" vertex="1" parent="1">
          <mxGeometry x="204" y="1020" width="10" height="10" as="geometry" />
        </mxCell>
        <mxCell id="XefmnypE6_ZuSq_uZl9b-323" value="&lt;font style=&quot;font-size: 10px;&quot;&gt;Делегат&lt;/font&gt;" style="text;html=1;strokeColor=none;fillColor=none;align=center;verticalAlign=middle;whiteSpace=wrap;rounded=0;" vertex="1" parent="1">
          <mxGeometry x="311.5" y="1020" width="35" height="20" as="geometry" />
        </mxCell>
        <mxCell id="XefmnypE6_ZuSq_uZl9b-324" value="" style="endArrow=none;html=1;rounded=0;exitX=1;exitY=0.5;exitDx=0;exitDy=0;entryX=0;entryY=0.5;entryDx=0;entryDy=0;" edge="1" parent="1" source="XefmnypE6_ZuSq_uZl9b-322" target="XefmnypE6_ZuSq_uZl9b-320">
          <mxGeometry width="50" height="50" relative="1" as="geometry">
            <mxPoint x="304" y="1070" as="sourcePoint" />
            <mxPoint x="354" y="1020" as="targetPoint" />
          </mxGeometry>
        </mxCell>
        <mxCell id="XefmnypE6_ZuSq_uZl9b-325" value="Копія для завантаження" style="text;html=1;strokeColor=none;fillColor=none;align=center;verticalAlign=middle;whiteSpace=wrap;rounded=0;" vertex="1" parent="1">
          <mxGeometry x="190" y="990" width="74" height="30" as="geometry" />
        </mxCell>
        <mxCell id="XefmnypE6_ZuSq_uZl9b-326" value="Входить" style="endArrow=open;endSize=12;dashed=1;html=1;rounded=0;exitX=1;exitY=0.5;exitDx=0;exitDy=0;entryX=0.155;entryY=0.983;entryDx=0;entryDy=0;entryPerimeter=0;" edge="1" parent="1" source="XefmnypE6_ZuSq_uZl9b-282" target="XefmnypE6_ZuSq_uZl9b-280">
          <mxGeometry width="160" relative="1" as="geometry">
            <mxPoint x="640" y="1130" as="sourcePoint" />
            <mxPoint x="800" y="1130" as="targetPoint" />
          </mxGeometry>
        </mxCell>
        <mxCell id="XefmnypE6_ZuSq_uZl9b-327" value="" style="endArrow=classic;html=1;rounded=0;entryX=1;entryY=0.5;entryDx=0;entryDy=0;exitX=0;exitY=0.5;exitDx=0;exitDy=0;" edge="1" parent="1" target="XefmnypE6_ZuSq_uZl9b-328">
          <mxGeometry width="50" height="50" relative="1" as="geometry">
            <mxPoint x="699" y="1049.66" as="sourcePoint" />
            <mxPoint x="564" y="1049.66" as="targetPoint" />
          </mxGeometry>
        </mxCell>
        <mxCell id="XefmnypE6_ZuSq_uZl9b-328" value="" style="ellipse;whiteSpace=wrap;html=1;" vertex="1" parent="1">
          <mxGeometry x="549.5" y="1045" width="10" height="10" as="geometry" />
        </mxCell>
        <mxCell id="XefmnypE6_ZuSq_uZl9b-329" value="" style="endArrow=classic;html=1;rounded=0;entryX=1;entryY=0.5;entryDx=0;entryDy=0;exitX=0;exitY=0.5;exitDx=0;exitDy=0;" edge="1" parent="1" source="XefmnypE6_ZuSq_uZl9b-328" target="XefmnypE6_ZuSq_uZl9b-278">
          <mxGeometry width="50" height="50" relative="1" as="geometry">
            <mxPoint x="709" y="1059.66" as="sourcePoint" />
            <mxPoint x="569" y="1060" as="targetPoint" />
          </mxGeometry>
        </mxCell>
        <mxCell id="XefmnypE6_ZuSq_uZl9b-330" value="" style="endArrow=classic;html=1;rounded=0;exitX=0;exitY=0.5;exitDx=0;exitDy=0;entryX=0.997;entryY=0.907;entryDx=0;entryDy=0;entryPerimeter=0;" edge="1" parent="1" source="XefmnypE6_ZuSq_uZl9b-302" target="XefmnypE6_ZuSq_uZl9b-278">
          <mxGeometry width="50" height="50" relative="1" as="geometry">
            <mxPoint x="704" y="1085" as="sourcePoint" />
            <mxPoint x="570" y="1085" as="targetPoint" />
          </mxGeometry>
        </mxCell>
        <mxCell id="XefmnypE6_ZuSq_uZl9b-331" value="&lt;font style=&quot;font-size: 10px;&quot;&gt;Копія&lt;/font&gt;" style="text;html=1;strokeColor=none;fillColor=none;align=center;verticalAlign=middle;whiteSpace=wrap;rounded=0;" vertex="1" parent="1">
          <mxGeometry x="534" y="1025" width="60" height="30" as="geometry" />
        </mxCell>
        <mxCell id="XefmnypE6_ZuSq_uZl9b-332" value="&lt;font style=&quot;font-size: 10px;&quot;&gt;Копія&lt;/font&gt;" style="text;html=1;strokeColor=none;fillColor=none;align=center;verticalAlign=middle;whiteSpace=wrap;rounded=0;" vertex="1" parent="1">
          <mxGeometry x="650" y="1025" width="60" height="30" as="geometry" />
        </mxCell>
        <mxCell id="XefmnypE6_ZuSq_uZl9b-333" value="Сервер" style="shape=folder;fontStyle=1;spacingTop=10;tabWidth=40;tabHeight=14;tabPosition=left;html=1;whiteSpace=wrap;" vertex="1" parent="1">
          <mxGeometry x="498" y="1420" width="140" height="100" as="geometry" />
        </mxCell>
        <mxCell id="XefmnypE6_ZuSq_uZl9b-334" value="Локальний сервер #2" style="shape=folder;fontStyle=1;spacingTop=10;tabWidth=40;tabHeight=14;tabPosition=left;html=1;whiteSpace=wrap;" vertex="1" parent="1">
          <mxGeometry x="638" y="1550" width="140" height="100" as="geometry" />
        </mxCell>
        <mxCell id="XefmnypE6_ZuSq_uZl9b-335" value="Робоча копія #2" style="shape=folder;fontStyle=1;spacingTop=10;tabWidth=40;tabHeight=14;tabPosition=left;html=1;whiteSpace=wrap;" vertex="1" parent="1">
          <mxGeometry x="653" y="1730" width="140" height="100" as="geometry" />
        </mxCell>
        <mxCell id="XefmnypE6_ZuSq_uZl9b-336" value="Отримує доступ" style="endArrow=open;endSize=12;dashed=1;html=1;rounded=0;exitX=0;exitY=0;exitDx=90;exitDy=14;exitPerimeter=0;entryX=0;entryY=0;entryDx=140;entryDy=100;entryPerimeter=0;" edge="1" parent="1" source="XefmnypE6_ZuSq_uZl9b-335" target="XefmnypE6_ZuSq_uZl9b-334">
          <mxGeometry x="-0.003" width="160" relative="1" as="geometry">
            <mxPoint x="733" y="1740" as="sourcePoint" />
            <mxPoint x="737" y="1740" as="targetPoint" />
            <mxPoint as="offset" />
          </mxGeometry>
        </mxCell>
        <mxCell id="XefmnypE6_ZuSq_uZl9b-337" value="Отримує доступ" style="endArrow=open;endSize=12;dashed=1;html=1;rounded=0;entryX=0.579;entryY=1;entryDx=0;entryDy=0;entryPerimeter=0;" edge="1" parent="1" source="XefmnypE6_ZuSq_uZl9b-334" target="XefmnypE6_ZuSq_uZl9b-333">
          <mxGeometry width="160" relative="1" as="geometry">
            <mxPoint x="753" y="1754" as="sourcePoint" />
            <mxPoint x="747" y="1662" as="targetPoint" />
          </mxGeometry>
        </mxCell>
        <mxCell id="XefmnypE6_ZuSq_uZl9b-338" value="Локальний сервер #1" style="shape=folder;fontStyle=1;spacingTop=10;tabWidth=40;tabHeight=14;tabPosition=left;html=1;whiteSpace=wrap;" vertex="1" parent="1">
          <mxGeometry x="393" y="1540" width="140" height="100" as="geometry" />
        </mxCell>
        <mxCell id="XefmnypE6_ZuSq_uZl9b-339" value="Робоча копія #1" style="shape=folder;fontStyle=1;spacingTop=10;tabWidth=40;tabHeight=14;tabPosition=left;html=1;whiteSpace=wrap;" vertex="1" parent="1">
          <mxGeometry x="383" y="1720" width="140" height="100" as="geometry" />
        </mxCell>
        <mxCell id="XefmnypE6_ZuSq_uZl9b-340" value="Отримує доступ" style="endArrow=open;endSize=12;dashed=1;html=1;rounded=0;exitX=0;exitY=0;exitDx=90;exitDy=14;exitPerimeter=0;entryX=0.893;entryY=1.01;entryDx=0;entryDy=0;entryPerimeter=0;" edge="1" parent="1" source="XefmnypE6_ZuSq_uZl9b-339" target="XefmnypE6_ZuSq_uZl9b-338">
          <mxGeometry width="160" relative="1" as="geometry">
            <mxPoint x="505" y="1812" as="sourcePoint" />
            <mxPoint x="509" y="1812" as="targetPoint" />
          </mxGeometry>
        </mxCell>
        <mxCell id="XefmnypE6_ZuSq_uZl9b-341" value="" style="endArrow=open;endSize=12;dashed=1;html=1;rounded=0;entryX=0.014;entryY=0.9;entryDx=0;entryDy=0;entryPerimeter=0;exitX=0.514;exitY=0.11;exitDx=0;exitDy=0;exitPerimeter=0;" edge="1" parent="1" source="XefmnypE6_ZuSq_uZl9b-338" target="XefmnypE6_ZuSq_uZl9b-333">
          <mxGeometry x="0.0017" width="160" relative="1" as="geometry">
            <mxPoint x="525" y="1826" as="sourcePoint" />
            <mxPoint x="403" y="1590" as="targetPoint" />
            <mxPoint as="offset" />
          </mxGeometry>
        </mxCell>
        <mxCell id="XefmnypE6_ZuSq_uZl9b-342" value="змінює" style="edgeLabel;html=1;align=center;verticalAlign=middle;resizable=0;points=[];" vertex="1" connectable="0" parent="XefmnypE6_ZuSq_uZl9b-341">
          <mxGeometry x="-0.2262" y="3" relative="1" as="geometry">
            <mxPoint as="offset" />
          </mxGeometry>
        </mxCell>
        <mxCell id="XefmnypE6_ZuSq_uZl9b-343" value="Отримує доступ" style="edgeLabel;html=1;align=center;verticalAlign=middle;resizable=0;points=[];" vertex="1" connectable="0" parent="XefmnypE6_ZuSq_uZl9b-341">
          <mxGeometry x="-0.1904" y="-2" relative="1" as="geometry">
            <mxPoint as="offset" />
          </mxGeometry>
        </mxCell>
        <mxCell id="XefmnypE6_ZuSq_uZl9b-344" value="Отримує доступ" style="endArrow=open;endSize=12;dashed=1;html=1;rounded=0;exitX=0.25;exitY=1;exitDx=0;exitDy=0;exitPerimeter=0;entryX=0;entryY=0;entryDx=0;entryDy=0;entryPerimeter=0;" edge="1" parent="1" source="XefmnypE6_ZuSq_uZl9b-334" target="XefmnypE6_ZuSq_uZl9b-335">
          <mxGeometry width="160" relative="1" as="geometry">
            <mxPoint x="753" y="1754" as="sourcePoint" />
            <mxPoint x="747" y="1662" as="targetPoint" />
          </mxGeometry>
        </mxCell>
        <mxCell id="XefmnypE6_ZuSq_uZl9b-345" value="Отримує доступ" style="endArrow=open;endSize=12;dashed=1;html=1;rounded=0;exitX=0.25;exitY=1;exitDx=0;exitDy=0;exitPerimeter=0;entryX=0;entryY=0;entryDx=0;entryDy=0;entryPerimeter=0;" edge="1" parent="1" source="XefmnypE6_ZuSq_uZl9b-338" target="XefmnypE6_ZuSq_uZl9b-339">
          <mxGeometry width="160" relative="1" as="geometry">
            <mxPoint x="483" y="1744" as="sourcePoint" />
            <mxPoint x="487" y="1652" as="targetPoint" />
          </mxGeometry>
        </mxCell>
        <mxCell id="XefmnypE6_ZuSq_uZl9b-346" value="Отримує доступ" style="endArrow=open;endSize=12;dashed=1;html=1;rounded=0;entryX=0.95;entryY=0.12;entryDx=0;entryDy=0;entryPerimeter=0;exitX=0;exitY=0;exitDx=140;exitDy=78.5;exitPerimeter=0;" edge="1" parent="1" source="XefmnypE6_ZuSq_uZl9b-333" target="XefmnypE6_ZuSq_uZl9b-334">
          <mxGeometry width="160" relative="1" as="geometry">
            <mxPoint x="677" y="1560" as="sourcePoint" />
            <mxPoint x="641" y="1528" as="targetPoint" />
          </mxGeometry>
        </mxCell>
        <mxCell id="XefmnypE6_ZuSq_uZl9b-347" value="Отримує доступ" style="endArrow=open;endSize=12;dashed=1;html=1;rounded=0;entryX=0.086;entryY=0.02;entryDx=0;entryDy=0;entryPerimeter=0;exitX=-0.021;exitY=0.43;exitDx=0;exitDy=0;exitPerimeter=0;" edge="1" parent="1" source="XefmnypE6_ZuSq_uZl9b-333" target="XefmnypE6_ZuSq_uZl9b-338">
          <mxGeometry x="0.0017" width="160" relative="1" as="geometry">
            <mxPoint x="475" y="1561" as="sourcePoint" />
            <mxPoint x="510" y="1520" as="targetPoint" />
            <mxPoint as="offset" />
          </mxGeometry>
        </mxCell>
        <mxCell id="XefmnypE6_ZuSq_uZl9b-350" value="Отримання доступу до репозиторію" style="rounded=1;whiteSpace=wrap;html=1;" vertex="1" parent="1">
          <mxGeometry x="578" y="2120" width="120" height="60" as="geometry" />
        </mxCell>
        <mxCell id="XefmnypE6_ZuSq_uZl9b-351" value="" style="line;strokeWidth=1;fillColor=none;align=left;verticalAlign=middle;spacingTop=-1;spacingLeft=3;spacingRight=3;rotatable=0;labelPosition=right;points=[];portConstraint=eastwest;strokeColor=inherit;" vertex="1" parent="1">
          <mxGeometry x="283" y="2210" width="680" height="78" as="geometry" />
        </mxCell>
        <mxCell id="XefmnypE6_ZuSq_uZl9b-352" value="" style="endArrow=classic;html=1;rounded=0;entryX=0.522;entryY=0.561;entryDx=0;entryDy=0;entryPerimeter=0;exitX=0.5;exitY=1;exitDx=0;exitDy=0;" edge="1" parent="1" source="XefmnypE6_ZuSq_uZl9b-350" target="XefmnypE6_ZuSq_uZl9b-351">
          <mxGeometry width="50" height="50" relative="1" as="geometry">
            <mxPoint x="623" y="2370" as="sourcePoint" />
            <mxPoint x="673" y="2320" as="targetPoint" />
          </mxGeometry>
        </mxCell>
        <mxCell id="XefmnypE6_ZuSq_uZl9b-353" value="Вхід" style="rounded=1;whiteSpace=wrap;html=1;" vertex="1" parent="1">
          <mxGeometry x="588" y="2260" width="40" height="20" as="geometry" />
        </mxCell>
        <mxCell id="XefmnypE6_ZuSq_uZl9b-354" value="" style="endArrow=classic;html=1;rounded=0;entryX=0.5;entryY=0;entryDx=0;entryDy=0;exitX=0.479;exitY=0.475;exitDx=0;exitDy=0;exitPerimeter=0;" edge="1" parent="1" source="XefmnypE6_ZuSq_uZl9b-351" target="XefmnypE6_ZuSq_uZl9b-353">
          <mxGeometry width="50" height="50" relative="1" as="geometry">
            <mxPoint x="523" y="2240" as="sourcePoint" />
            <mxPoint x="758" y="2310" as="targetPoint" />
          </mxGeometry>
        </mxCell>
        <mxCell id="XefmnypE6_ZuSq_uZl9b-355" value="" style="line;strokeWidth=1;fillColor=none;align=left;verticalAlign=middle;spacingTop=-1;spacingLeft=3;spacingRight=3;rotatable=0;labelPosition=right;points=[];portConstraint=eastwest;strokeColor=inherit;" vertex="1" parent="1">
          <mxGeometry x="263" y="2410" width="700" height="78" as="geometry" />
        </mxCell>
        <mxCell id="XefmnypE6_ZuSq_uZl9b-356" value="" style="endArrow=classic;html=1;rounded=0;entryX=0.188;entryY=0.518;entryDx=0;entryDy=0;entryPerimeter=0;" edge="1" parent="1" source="XefmnypE6_ZuSq_uZl9b-368" target="XefmnypE6_ZuSq_uZl9b-351">
          <mxGeometry width="50" height="50" relative="1" as="geometry">
            <mxPoint x="433" y="2410" as="sourcePoint" />
            <mxPoint x="503" y="2450" as="targetPoint" />
            <Array as="points">
              <mxPoint x="413" y="2370" />
            </Array>
          </mxGeometry>
        </mxCell>
        <mxCell id="XefmnypE6_ZuSq_uZl9b-357" value="" style="endArrow=classic;html=1;rounded=0;entryX=1;entryY=0.5;entryDx=0;entryDy=0;exitX=0.5;exitY=1;exitDx=0;exitDy=0;" edge="1" parent="1" source="XefmnypE6_ZuSq_uZl9b-369" target="XefmnypE6_ZuSq_uZl9b-372">
          <mxGeometry width="50" height="50" relative="1" as="geometry">
            <mxPoint x="766.75" y="2410" as="sourcePoint" />
            <mxPoint x="737" y="2450" as="targetPoint" />
            <Array as="points">
              <mxPoint x="723" y="2415" />
            </Array>
          </mxGeometry>
        </mxCell>
        <mxCell id="XefmnypE6_ZuSq_uZl9b-358" value="Завантаження копії з серверу" style="rounded=1;whiteSpace=wrap;html=1;" vertex="1" parent="1">
          <mxGeometry x="303" y="2488" width="120" height="32" as="geometry" />
        </mxCell>
        <mxCell id="XefmnypE6_ZuSq_uZl9b-359" value="Завантаження копії на сервер" style="rounded=1;whiteSpace=wrap;html=1;" vertex="1" parent="1">
          <mxGeometry x="623" y="2482" width="120" height="32" as="geometry" />
        </mxCell>
        <mxCell id="XefmnypE6_ZuSq_uZl9b-360" value="Перегляд" style="rounded=1;whiteSpace=wrap;html=1;" vertex="1" parent="1">
          <mxGeometry x="843" y="2488" width="120" height="20" as="geometry" />
        </mxCell>
        <mxCell id="XefmnypE6_ZuSq_uZl9b-361" value="" style="endArrow=classic;html=1;rounded=0;entryX=0.5;entryY=0;entryDx=0;entryDy=0;exitX=0.143;exitY=0.529;exitDx=0;exitDy=0;exitPerimeter=0;" edge="1" parent="1" source="XefmnypE6_ZuSq_uZl9b-355" target="XefmnypE6_ZuSq_uZl9b-358">
          <mxGeometry width="50" height="50" relative="1" as="geometry">
            <mxPoint x="583" y="2520" as="sourcePoint" />
            <mxPoint x="633" y="2470" as="targetPoint" />
            <Array as="points">
              <mxPoint x="363" y="2480" />
            </Array>
          </mxGeometry>
        </mxCell>
        <mxCell id="XefmnypE6_ZuSq_uZl9b-362" value="" style="endArrow=classic;html=1;rounded=0;entryX=0.5;entryY=0;entryDx=0;entryDy=0;exitX=0.599;exitY=0.502;exitDx=0;exitDy=0;exitPerimeter=0;" edge="1" parent="1" source="XefmnypE6_ZuSq_uZl9b-355" target="XefmnypE6_ZuSq_uZl9b-359">
          <mxGeometry width="50" height="50" relative="1" as="geometry">
            <mxPoint x="373" y="2461" as="sourcePoint" />
            <mxPoint x="373" y="2498" as="targetPoint" />
            <Array as="points" />
          </mxGeometry>
        </mxCell>
        <mxCell id="XefmnypE6_ZuSq_uZl9b-363" value="" style="line;strokeWidth=1;fillColor=none;align=left;verticalAlign=middle;spacingTop=-1;spacingLeft=3;spacingRight=3;rotatable=0;labelPosition=right;points=[];portConstraint=eastwest;strokeColor=inherit;" vertex="1" parent="1">
          <mxGeometry x="278" y="2750" width="700" height="78" as="geometry" />
        </mxCell>
        <mxCell id="XefmnypE6_ZuSq_uZl9b-364" value="" style="endArrow=classic;html=1;rounded=0;" edge="1" parent="1">
          <mxGeometry width="50" height="50" relative="1" as="geometry">
            <mxPoint x="617" y="2789" as="sourcePoint" />
            <mxPoint x="617" y="2900" as="targetPoint" />
          </mxGeometry>
        </mxCell>
        <mxCell id="XefmnypE6_ZuSq_uZl9b-365" value="Користувач завершив роботу з системою контролю версій" style="rounded=0;whiteSpace=wrap;html=1;" vertex="1" parent="1">
          <mxGeometry x="553" y="2900" width="120" height="60" as="geometry" />
        </mxCell>
        <mxCell id="XefmnypE6_ZuSq_uZl9b-367" value="" style="endArrow=classic;html=1;rounded=0;entryX=0.5;entryY=0;entryDx=0;entryDy=0;exitX=0.5;exitY=1;exitDx=0;exitDy=0;" edge="1" parent="1" source="XefmnypE6_ZuSq_uZl9b-365">
          <mxGeometry width="50" height="50" relative="1" as="geometry">
            <mxPoint x="543" y="2980" as="sourcePoint" />
            <mxPoint x="608" y="3010" as="targetPoint" />
          </mxGeometry>
        </mxCell>
        <mxCell id="XefmnypE6_ZuSq_uZl9b-368" value="Повернення до входу" style="rounded=1;whiteSpace=wrap;html=1;" vertex="1" parent="1">
          <mxGeometry x="463" y="2350" width="80" height="40" as="geometry" />
        </mxCell>
        <mxCell id="XefmnypE6_ZuSq_uZl9b-369" value="Доступ до репозиторію" style="rounded=1;whiteSpace=wrap;html=1;" vertex="1" parent="1">
          <mxGeometry x="683" y="2350" width="80" height="40" as="geometry" />
        </mxCell>
        <mxCell id="XefmnypE6_ZuSq_uZl9b-370" value="" style="endArrow=classic;html=1;rounded=0;entryX=0.5;entryY=0;entryDx=0;entryDy=0;" edge="1" parent="1" source="XefmnypE6_ZuSq_uZl9b-375" target="XefmnypE6_ZuSq_uZl9b-368">
          <mxGeometry width="50" height="50" relative="1" as="geometry">
            <mxPoint x="603" y="2315" as="sourcePoint" />
            <mxPoint x="633" y="2310" as="targetPoint" />
            <Array as="points">
              <mxPoint x="503" y="2315" />
            </Array>
          </mxGeometry>
        </mxCell>
        <mxCell id="XefmnypE6_ZuSq_uZl9b-371" value="" style="endArrow=classic;html=1;rounded=0;entryX=0.5;entryY=0;entryDx=0;entryDy=0;" edge="1" parent="1" target="XefmnypE6_ZuSq_uZl9b-369">
          <mxGeometry width="50" height="50" relative="1" as="geometry">
            <mxPoint x="603" y="2315" as="sourcePoint" />
            <mxPoint x="513" y="2360" as="targetPoint" />
            <Array as="points">
              <mxPoint x="723" y="2315" />
            </Array>
          </mxGeometry>
        </mxCell>
        <mxCell id="XefmnypE6_ZuSq_uZl9b-372" value="" style="rhombus;whiteSpace=wrap;html=1;" vertex="1" parent="1">
          <mxGeometry x="593" y="2400" width="30" height="30" as="geometry" />
        </mxCell>
        <mxCell id="XefmnypE6_ZuSq_uZl9b-373" value="" style="endArrow=classic;html=1;rounded=0;entryX=0.492;entryY=0.489;entryDx=0;entryDy=0;entryPerimeter=0;exitX=0.5;exitY=1;exitDx=0;exitDy=0;" edge="1" parent="1" source="XefmnypE6_ZuSq_uZl9b-372" target="XefmnypE6_ZuSq_uZl9b-355">
          <mxGeometry width="50" height="50" relative="1" as="geometry">
            <mxPoint x="583" y="2430" as="sourcePoint" />
            <mxPoint x="633" y="2380" as="targetPoint" />
          </mxGeometry>
        </mxCell>
        <mxCell id="XefmnypE6_ZuSq_uZl9b-374" value="" style="endArrow=classic;html=1;rounded=0;entryX=0.5;entryY=0;entryDx=0;entryDy=0;" edge="1" parent="1" target="XefmnypE6_ZuSq_uZl9b-375">
          <mxGeometry width="50" height="50" relative="1" as="geometry">
            <mxPoint x="603" y="2315" as="sourcePoint" />
            <mxPoint x="503" y="2350" as="targetPoint" />
            <Array as="points" />
          </mxGeometry>
        </mxCell>
        <mxCell id="XefmnypE6_ZuSq_uZl9b-375" value="" style="rhombus;whiteSpace=wrap;html=1;" vertex="1" parent="1">
          <mxGeometry x="593" y="2300" width="30" height="30" as="geometry" />
        </mxCell>
        <mxCell id="XefmnypE6_ZuSq_uZl9b-376" value="" style="endArrow=classic;html=1;rounded=0;exitX=0.5;exitY=1;exitDx=0;exitDy=0;entryX=0.5;entryY=0;entryDx=0;entryDy=0;" edge="1" parent="1" source="XefmnypE6_ZuSq_uZl9b-353" target="XefmnypE6_ZuSq_uZl9b-375">
          <mxGeometry width="50" height="50" relative="1" as="geometry">
            <mxPoint x="613" y="2400" as="sourcePoint" />
            <mxPoint x="663" y="2350" as="targetPoint" />
          </mxGeometry>
        </mxCell>
        <mxCell id="XefmnypE6_ZuSq_uZl9b-377" value="Успішна авторизація" style="text;html=1;strokeColor=none;fillColor=none;align=center;verticalAlign=middle;whiteSpace=wrap;rounded=0;" vertex="1" parent="1">
          <mxGeometry x="634" y="2320" width="60" height="30" as="geometry" />
        </mxCell>
        <mxCell id="XefmnypE6_ZuSq_uZl9b-378" value="Помилка" style="text;html=1;strokeColor=none;fillColor=none;align=center;verticalAlign=middle;whiteSpace=wrap;rounded=0;" vertex="1" parent="1">
          <mxGeometry x="513" y="2310" width="60" height="30" as="geometry" />
        </mxCell>
        <mxCell id="XefmnypE6_ZuSq_uZl9b-379" value="" style="rhombus;whiteSpace=wrap;html=1;" vertex="1" parent="1">
          <mxGeometry x="348" y="2560" width="30" height="40" as="geometry" />
        </mxCell>
        <mxCell id="XefmnypE6_ZuSq_uZl9b-380" value="Ні" style="rounded=1;whiteSpace=wrap;html=1;" vertex="1" parent="1">
          <mxGeometry x="223" y="2650" width="100" height="30" as="geometry" />
        </mxCell>
        <mxCell id="XefmnypE6_ZuSq_uZl9b-381" value="Так" style="rounded=1;whiteSpace=wrap;html=1;" vertex="1" parent="1">
          <mxGeometry x="403" y="2650" width="100" height="30" as="geometry" />
        </mxCell>
        <mxCell id="XefmnypE6_ZuSq_uZl9b-382" value="" style="endArrow=classic;html=1;rounded=0;exitX=1;exitY=0.5;exitDx=0;exitDy=0;entryX=0.5;entryY=0;entryDx=0;entryDy=0;" edge="1" parent="1" source="XefmnypE6_ZuSq_uZl9b-379" target="XefmnypE6_ZuSq_uZl9b-381">
          <mxGeometry width="50" height="50" relative="1" as="geometry">
            <mxPoint x="263" y="2680" as="sourcePoint" />
            <mxPoint x="453" y="2580" as="targetPoint" />
            <Array as="points">
              <mxPoint x="453" y="2580" />
            </Array>
          </mxGeometry>
        </mxCell>
        <mxCell id="XefmnypE6_ZuSq_uZl9b-383" value="" style="endArrow=classic;html=1;rounded=0;exitX=0;exitY=0.5;exitDx=0;exitDy=0;entryX=0.421;entryY=0.065;entryDx=0;entryDy=0;entryPerimeter=0;" edge="1" parent="1" source="XefmnypE6_ZuSq_uZl9b-379" target="XefmnypE6_ZuSq_uZl9b-380">
          <mxGeometry width="50" height="50" relative="1" as="geometry">
            <mxPoint x="388" y="2590" as="sourcePoint" />
            <mxPoint x="463" y="2660" as="targetPoint" />
            <Array as="points">
              <mxPoint x="263" y="2580" />
            </Array>
          </mxGeometry>
        </mxCell>
        <mxCell id="XefmnypE6_ZuSq_uZl9b-384" value="Вільного місця недостатньо" style="text;html=1;strokeColor=none;fillColor=none;align=center;verticalAlign=middle;whiteSpace=wrap;rounded=0;" vertex="1" parent="1">
          <mxGeometry x="283" y="2540" width="57" height="35" as="geometry" />
        </mxCell>
        <mxCell id="XefmnypE6_ZuSq_uZl9b-385" value="Вільного місця достатньо" style="text;html=1;strokeColor=none;fillColor=none;align=center;verticalAlign=middle;whiteSpace=wrap;rounded=0;" vertex="1" parent="1">
          <mxGeometry x="378" y="2540" width="62" height="35" as="geometry" />
        </mxCell>
        <mxCell id="XefmnypE6_ZuSq_uZl9b-386" value="" style="rhombus;whiteSpace=wrap;html=1;" vertex="1" parent="1">
          <mxGeometry x="348" y="2700" width="30" height="40" as="geometry" />
        </mxCell>
        <mxCell id="XefmnypE6_ZuSq_uZl9b-387" value="" style="endArrow=classic;html=1;rounded=0;entryX=0;entryY=0.5;entryDx=0;entryDy=0;exitX=0.5;exitY=1;exitDx=0;exitDy=0;" edge="1" parent="1" source="XefmnypE6_ZuSq_uZl9b-380" target="XefmnypE6_ZuSq_uZl9b-386">
          <mxGeometry width="50" height="50" relative="1" as="geometry">
            <mxPoint x="243" y="2720" as="sourcePoint" />
            <mxPoint x="313" y="2630" as="targetPoint" />
            <Array as="points">
              <mxPoint x="273" y="2720" />
            </Array>
          </mxGeometry>
        </mxCell>
        <mxCell id="XefmnypE6_ZuSq_uZl9b-388" value="" style="endArrow=classic;html=1;rounded=0;exitX=0.5;exitY=1;exitDx=0;exitDy=0;entryX=1;entryY=0.5;entryDx=0;entryDy=0;" edge="1" parent="1" source="XefmnypE6_ZuSq_uZl9b-381" target="XefmnypE6_ZuSq_uZl9b-386">
          <mxGeometry width="50" height="50" relative="1" as="geometry">
            <mxPoint x="277" y="2691" as="sourcePoint" />
            <mxPoint x="383" y="2720" as="targetPoint" />
            <Array as="points">
              <mxPoint x="453" y="2720" />
            </Array>
          </mxGeometry>
        </mxCell>
        <mxCell id="XefmnypE6_ZuSq_uZl9b-389" value="" style="endArrow=classic;html=1;rounded=0;entryX=0.913;entryY=0.51;entryDx=0;entryDy=0;entryPerimeter=0;exitX=0.589;exitY=0.9;exitDx=0;exitDy=0;exitPerimeter=0;" edge="1" parent="1" source="XefmnypE6_ZuSq_uZl9b-360" target="XefmnypE6_ZuSq_uZl9b-363">
          <mxGeometry width="50" height="50" relative="1" as="geometry">
            <mxPoint x="903" y="2510" as="sourcePoint" />
            <mxPoint x="723" y="2620" as="targetPoint" />
          </mxGeometry>
        </mxCell>
        <mxCell id="XefmnypE6_ZuSq_uZl9b-390" value="" style="endArrow=classic;html=1;rounded=0;entryX=0.5;entryY=0;entryDx=0;entryDy=0;exitX=0.915;exitY=0.478;exitDx=0;exitDy=0;exitPerimeter=0;" edge="1" parent="1" source="XefmnypE6_ZuSq_uZl9b-355" target="XefmnypE6_ZuSq_uZl9b-360">
          <mxGeometry width="50" height="50" relative="1" as="geometry">
            <mxPoint x="924" y="2516" as="sourcePoint" />
            <mxPoint x="927" y="2800" as="targetPoint" />
          </mxGeometry>
        </mxCell>
        <mxCell id="XefmnypE6_ZuSq_uZl9b-391" value="" style="endArrow=classic;html=1;rounded=0;entryX=0.5;entryY=0;entryDx=0;entryDy=0;exitX=0.5;exitY=1;exitDx=0;exitDy=0;" edge="1" parent="1" source="XefmnypE6_ZuSq_uZl9b-358" target="XefmnypE6_ZuSq_uZl9b-379">
          <mxGeometry width="50" height="50" relative="1" as="geometry">
            <mxPoint x="373" y="2461" as="sourcePoint" />
            <mxPoint x="373" y="2498" as="targetPoint" />
            <Array as="points" />
          </mxGeometry>
        </mxCell>
        <mxCell id="XefmnypE6_ZuSq_uZl9b-392" value="" style="endArrow=classic;html=1;rounded=0;exitX=0.491;exitY=0.916;exitDx=0;exitDy=0;exitPerimeter=0;" edge="1" parent="1" source="XefmnypE6_ZuSq_uZl9b-386">
          <mxGeometry width="50" height="50" relative="1" as="geometry">
            <mxPoint x="373" y="2530" as="sourcePoint" />
            <mxPoint x="363" y="2790" as="targetPoint" />
            <Array as="points">
              <mxPoint x="363" y="2770" />
            </Array>
          </mxGeometry>
        </mxCell>
        <mxCell id="XefmnypE6_ZuSq_uZl9b-393" value="" style="rhombus;whiteSpace=wrap;html=1;" vertex="1" parent="1">
          <mxGeometry x="668" y="2560" width="30" height="40" as="geometry" />
        </mxCell>
        <mxCell id="XefmnypE6_ZuSq_uZl9b-394" value="Ні" style="rounded=1;whiteSpace=wrap;html=1;" vertex="1" parent="1">
          <mxGeometry x="543" y="2650" width="100" height="30" as="geometry" />
        </mxCell>
        <mxCell id="XefmnypE6_ZuSq_uZl9b-395" value="Так" style="rounded=1;whiteSpace=wrap;html=1;" vertex="1" parent="1">
          <mxGeometry x="723" y="2650" width="100" height="30" as="geometry" />
        </mxCell>
        <mxCell id="XefmnypE6_ZuSq_uZl9b-396" value="" style="endArrow=classic;html=1;rounded=0;exitX=1;exitY=0.5;exitDx=0;exitDy=0;entryX=0.5;entryY=0;entryDx=0;entryDy=0;" edge="1" parent="1" source="XefmnypE6_ZuSq_uZl9b-393" target="XefmnypE6_ZuSq_uZl9b-395">
          <mxGeometry width="50" height="50" relative="1" as="geometry">
            <mxPoint x="583" y="2680" as="sourcePoint" />
            <mxPoint x="773" y="2580" as="targetPoint" />
            <Array as="points">
              <mxPoint x="773" y="2580" />
            </Array>
          </mxGeometry>
        </mxCell>
        <mxCell id="XefmnypE6_ZuSq_uZl9b-397" value="" style="endArrow=classic;html=1;rounded=0;exitX=0;exitY=0.5;exitDx=0;exitDy=0;entryX=0.421;entryY=0.065;entryDx=0;entryDy=0;entryPerimeter=0;" edge="1" parent="1" source="XefmnypE6_ZuSq_uZl9b-393" target="XefmnypE6_ZuSq_uZl9b-394">
          <mxGeometry width="50" height="50" relative="1" as="geometry">
            <mxPoint x="708" y="2590" as="sourcePoint" />
            <mxPoint x="783" y="2660" as="targetPoint" />
            <Array as="points">
              <mxPoint x="583" y="2580" />
            </Array>
          </mxGeometry>
        </mxCell>
        <mxCell id="XefmnypE6_ZuSq_uZl9b-398" value="Копія більша, ніж це дозволено" style="text;html=1;strokeColor=none;fillColor=none;align=center;verticalAlign=middle;whiteSpace=wrap;rounded=0;" vertex="1" parent="1">
          <mxGeometry x="698" y="2540" width="87" height="20" as="geometry" />
        </mxCell>
        <mxCell id="XefmnypE6_ZuSq_uZl9b-399" value="Копія має прийнятний розмір" style="text;html=1;strokeColor=none;fillColor=none;align=center;verticalAlign=middle;whiteSpace=wrap;rounded=0;" vertex="1" parent="1">
          <mxGeometry x="610" y="2540" width="60" height="30" as="geometry" />
        </mxCell>
        <mxCell id="XefmnypE6_ZuSq_uZl9b-400" value="" style="rhombus;whiteSpace=wrap;html=1;" vertex="1" parent="1">
          <mxGeometry x="668" y="2700" width="30" height="40" as="geometry" />
        </mxCell>
        <mxCell id="XefmnypE6_ZuSq_uZl9b-401" value="" style="endArrow=classic;html=1;rounded=0;entryX=0;entryY=0.5;entryDx=0;entryDy=0;exitX=0.5;exitY=1;exitDx=0;exitDy=0;" edge="1" parent="1" source="XefmnypE6_ZuSq_uZl9b-394" target="XefmnypE6_ZuSq_uZl9b-400">
          <mxGeometry width="50" height="50" relative="1" as="geometry">
            <mxPoint x="563" y="2720" as="sourcePoint" />
            <mxPoint x="633" y="2630" as="targetPoint" />
            <Array as="points">
              <mxPoint x="593" y="2720" />
            </Array>
          </mxGeometry>
        </mxCell>
        <mxCell id="XefmnypE6_ZuSq_uZl9b-402" value="" style="endArrow=classic;html=1;rounded=0;exitX=0.5;exitY=1;exitDx=0;exitDy=0;entryX=1;entryY=0.5;entryDx=0;entryDy=0;" edge="1" parent="1" source="XefmnypE6_ZuSq_uZl9b-395" target="XefmnypE6_ZuSq_uZl9b-400">
          <mxGeometry width="50" height="50" relative="1" as="geometry">
            <mxPoint x="597" y="2691" as="sourcePoint" />
            <mxPoint x="703" y="2720" as="targetPoint" />
            <Array as="points">
              <mxPoint x="773" y="2720" />
            </Array>
          </mxGeometry>
        </mxCell>
        <mxCell id="XefmnypE6_ZuSq_uZl9b-403" value="" style="endArrow=classic;html=1;rounded=0;entryX=0.5;entryY=0;entryDx=0;entryDy=0;exitX=0.5;exitY=1;exitDx=0;exitDy=0;" edge="1" parent="1" source="XefmnypE6_ZuSq_uZl9b-359" target="XefmnypE6_ZuSq_uZl9b-393">
          <mxGeometry width="50" height="50" relative="1" as="geometry">
            <mxPoint x="373" y="2530" as="sourcePoint" />
            <mxPoint x="373" y="2570" as="targetPoint" />
            <Array as="points" />
          </mxGeometry>
        </mxCell>
        <mxCell id="XefmnypE6_ZuSq_uZl9b-404" value="" style="endArrow=classic;html=1;rounded=0;exitX=0.5;exitY=1;exitDx=0;exitDy=0;entryX=0.579;entryY=0.509;entryDx=0;entryDy=0;entryPerimeter=0;" edge="1" parent="1" source="XefmnypE6_ZuSq_uZl9b-400" target="XefmnypE6_ZuSq_uZl9b-363">
          <mxGeometry width="50" height="50" relative="1" as="geometry">
            <mxPoint x="373" y="2747" as="sourcePoint" />
            <mxPoint x="373" y="2800" as="targetPoint" />
            <Array as="points" />
          </mxGeometry>
        </mxCell>
        <mxCell id="XefmnypE6_ZuSq_uZl9b-405" value="" style="ellipse;whiteSpace=wrap;html=1;aspect=fixed;fillColor=#FF3355;" vertex="1" parent="1">
          <mxGeometry x="613" y="1960" width="50" height="50" as="geometry" />
        </mxCell>
        <mxCell id="XefmnypE6_ZuSq_uZl9b-406" value="" style="endArrow=classic;html=1;rounded=0;exitX=0.5;exitY=1;exitDx=0;exitDy=0;entryX=0.486;entryY=-0.078;entryDx=0;entryDy=0;entryPerimeter=0;" edge="1" parent="1" source="XefmnypE6_ZuSq_uZl9b-405" target="XefmnypE6_ZuSq_uZl9b-350">
          <mxGeometry width="50" height="50" relative="1" as="geometry">
            <mxPoint x="640" y="2080" as="sourcePoint" />
            <mxPoint x="690" y="2030" as="targetPoint" />
          </mxGeometry>
        </mxCell>
        <mxCell id="XefmnypE6_ZuSq_uZl9b-407" value="" style="ellipse;whiteSpace=wrap;html=1;aspect=fixed;fillColor=#FF3355;" vertex="1" parent="1">
          <mxGeometry x="578" y="3010" width="60" height="60" as="geometry" />
        </mxCell>
        <mxCell id="XefmnypE6_ZuSq_uZl9b-409" value="Користувач" style="shape=umlActor;verticalLabelPosition=bottom;verticalAlign=top;html=1;outlineConnect=0;" vertex="1" parent="1">
          <mxGeometry x="903" y="3350" width="30" height="60" as="geometry" />
        </mxCell>
        <mxCell id="XefmnypE6_ZuSq_uZl9b-410" value="Вхід" style="ellipse;whiteSpace=wrap;html=1;" vertex="1" parent="1">
          <mxGeometry x="647" y="3380" width="60" height="40" as="geometry" />
        </mxCell>
        <mxCell id="XefmnypE6_ZuSq_uZl9b-411" value="" style="endArrow=none;html=1;rounded=0;exitX=1;exitY=0.5;exitDx=0;exitDy=0;" edge="1" parent="1" source="XefmnypE6_ZuSq_uZl9b-410" target="XefmnypE6_ZuSq_uZl9b-409">
          <mxGeometry width="50" height="50" relative="1" as="geometry">
            <mxPoint x="759" y="3330" as="sourcePoint" />
            <mxPoint x="913" y="3350" as="targetPoint" />
          </mxGeometry>
        </mxCell>
        <mxCell id="XefmnypE6_ZuSq_uZl9b-412" value="Аутентифікація користувача" style="ellipse;whiteSpace=wrap;html=1;" vertex="1" parent="1">
          <mxGeometry x="503" y="3310" width="110" height="40" as="geometry" />
        </mxCell>
        <mxCell id="XefmnypE6_ZuSq_uZl9b-414" value="Доступ до сайту" style="ellipse;whiteSpace=wrap;html=1;" vertex="1" parent="1">
          <mxGeometry x="343" y="3500" width="70" height="40" as="geometry" />
        </mxCell>
        <mxCell id="XefmnypE6_ZuSq_uZl9b-415" value="Включає в себе" style="endArrow=open;endSize=12;dashed=1;html=1;rounded=0;exitX=0.7;exitY=-0.025;exitDx=0;exitDy=0;entryX=0;entryY=1;entryDx=0;entryDy=0;exitPerimeter=0;" edge="1" parent="1" source="XefmnypE6_ZuSq_uZl9b-414" target="XefmnypE6_ZuSq_uZl9b-412">
          <mxGeometry width="160" relative="1" as="geometry">
            <mxPoint x="423" y="3520" as="sourcePoint" />
            <mxPoint x="564" y="3512" as="targetPoint" />
          </mxGeometry>
        </mxCell>
        <mxCell id="XefmnypE6_ZuSq_uZl9b-416" value="Включає&lt;br&gt;в себе" style="endArrow=open;endSize=12;dashed=1;html=1;rounded=0;exitX=1;exitY=0.5;exitDx=0;exitDy=0;entryX=0;entryY=0.5;entryDx=0;entryDy=0;" edge="1" parent="1" source="XefmnypE6_ZuSq_uZl9b-414">
          <mxGeometry width="160" relative="1" as="geometry">
            <mxPoint x="423" y="3520" as="sourcePoint" />
            <mxPoint x="523" y="3520" as="targetPoint" />
            <mxPoint as="offset" />
          </mxGeometry>
        </mxCell>
        <mxCell id="XefmnypE6_ZuSq_uZl9b-418" value="Завантаження копії на сервер" style="ellipse;whiteSpace=wrap;html=1;" vertex="1" parent="1">
          <mxGeometry x="523" y="3480" width="120" height="80" as="geometry" />
        </mxCell>
        <mxCell id="XefmnypE6_ZuSq_uZl9b-419" value="Перевірка умов для підтвердеження завантаження" style="ellipse;whiteSpace=wrap;html=1;" vertex="1" parent="1">
          <mxGeometry x="763" y="3480" width="130" height="80" as="geometry" />
        </mxCell>
        <mxCell id="XefmnypE6_ZuSq_uZl9b-420" value="Включає&lt;br&gt;в себе" style="endArrow=open;endSize=12;dashed=1;html=1;rounded=0;" edge="1" parent="1" target="XefmnypE6_ZuSq_uZl9b-419">
          <mxGeometry width="160" relative="1" as="geometry">
            <mxPoint x="643" y="3520" as="sourcePoint" />
            <mxPoint x="533" y="3530" as="targetPoint" />
            <mxPoint as="offset" />
          </mxGeometry>
        </mxCell>
        <mxCell id="XefmnypE6_ZuSq_uZl9b-421" value="Завантаження копії з сервера" style="ellipse;whiteSpace=wrap;html=1;" vertex="1" parent="1">
          <mxGeometry x="527" y="3610" width="120" height="80" as="geometry" />
        </mxCell>
        <mxCell id="XefmnypE6_ZuSq_uZl9b-422" value="Перевірка умов для підтвердеження завантаження" style="ellipse;whiteSpace=wrap;html=1;" vertex="1" parent="1">
          <mxGeometry x="763" y="3610" width="130" height="80" as="geometry" />
        </mxCell>
        <mxCell id="XefmnypE6_ZuSq_uZl9b-423" value="Включає&lt;br&gt;в себе" style="endArrow=open;endSize=12;dashed=1;html=1;rounded=0;exitX=1;exitY=0.5;exitDx=0;exitDy=0;entryX=0;entryY=0.5;entryDx=0;entryDy=0;" edge="1" parent="1" source="XefmnypE6_ZuSq_uZl9b-421" target="XefmnypE6_ZuSq_uZl9b-422">
          <mxGeometry width="160" relative="1" as="geometry">
            <mxPoint x="423" y="3530" as="sourcePoint" />
            <mxPoint x="533" y="3530" as="targetPoint" />
            <mxPoint as="offset" />
          </mxGeometry>
        </mxCell>
        <mxCell id="XefmnypE6_ZuSq_uZl9b-424" value="Включає&amp;nbsp;&lt;br&gt;в себе" style="endArrow=open;endSize=12;dashed=1;html=1;rounded=0;exitX=1;exitY=1;exitDx=0;exitDy=0;entryX=0.05;entryY=0.315;entryDx=0;entryDy=0;entryPerimeter=0;" edge="1" parent="1" source="XefmnypE6_ZuSq_uZl9b-414" target="XefmnypE6_ZuSq_uZl9b-421">
          <mxGeometry width="160" relative="1" as="geometry">
            <mxPoint x="423" y="3530" as="sourcePoint" />
            <mxPoint x="533" y="3530" as="targetPoint" />
            <mxPoint as="offset" />
          </mxGeometry>
        </mxCell>
        <mxCell id="XefmnypE6_ZuSq_uZl9b-425" value="Перевірка рівню доступу користувача" style="ellipse;whiteSpace=wrap;html=1;" vertex="1" parent="1">
          <mxGeometry x="643" y="3200" width="110" height="70" as="geometry" />
        </mxCell>
        <mxCell id="XefmnypE6_ZuSq_uZl9b-426" value="Включає&lt;br&gt;в себе" style="endArrow=open;endSize=12;dashed=1;html=1;rounded=0;" edge="1" parent="1" source="XefmnypE6_ZuSq_uZl9b-412" target="XefmnypE6_ZuSq_uZl9b-425">
          <mxGeometry width="160" relative="1" as="geometry">
            <mxPoint x="402" y="3509" as="sourcePoint" />
            <mxPoint x="529" y="3354" as="targetPoint" />
          </mxGeometry>
        </mxCell>
        <mxCell id="XefmnypE6_ZuSq_uZl9b-427" value="Перегляд" style="ellipse;whiteSpace=wrap;html=1;" vertex="1" parent="1">
          <mxGeometry x="540" y="3700" width="120" height="80" as="geometry" />
        </mxCell>
        <mxCell id="XefmnypE6_ZuSq_uZl9b-428" value="Включає&lt;br&gt;в себе" style="endArrow=open;endSize=12;dashed=1;html=1;rounded=0;exitX=0.586;exitY=0.961;exitDx=0;exitDy=0;entryX=0;entryY=0;entryDx=0;entryDy=0;exitPerimeter=0;" edge="1" parent="1" source="XefmnypE6_ZuSq_uZl9b-414" target="XefmnypE6_ZuSq_uZl9b-427">
          <mxGeometry x="0.0019" width="160" relative="1" as="geometry">
            <mxPoint x="413" y="3544" as="sourcePoint" />
            <mxPoint x="543" y="3645" as="targetPoint" />
            <mxPoint as="offset" />
          </mxGeometry>
        </mxCell>
        <mxCell id="XefmnypE6_ZuSq_uZl9b-429" value="Зміна налаштувань репозиторію" style="ellipse;whiteSpace=wrap;html=1;" vertex="1" parent="1">
          <mxGeometry x="527" y="3790" width="120" height="80" as="geometry" />
        </mxCell>
        <mxCell id="XefmnypE6_ZuSq_uZl9b-430" value="Включає&lt;br&gt;в себе" style="endArrow=open;endSize=12;dashed=1;html=1;rounded=0;exitX=0.406;exitY=0.975;exitDx=0;exitDy=0;exitPerimeter=0;" edge="1" parent="1" source="XefmnypE6_ZuSq_uZl9b-414" target="XefmnypE6_ZuSq_uZl9b-429">
          <mxGeometry width="160" relative="1" as="geometry">
            <mxPoint x="394" y="3548" as="sourcePoint" />
            <mxPoint x="555" y="3737" as="targetPoint" />
            <mxPoint as="offset" />
          </mxGeometry>
        </mxCell>
        <mxCell id="XefmnypE6_ZuSq_uZl9b-431" value="Перевірка рівня доступу" style="ellipse;whiteSpace=wrap;html=1;" vertex="1" parent="1">
          <mxGeometry x="814" y="3790" width="130" height="80" as="geometry" />
        </mxCell>
        <mxCell id="XefmnypE6_ZuSq_uZl9b-432" value="Включає&lt;br&gt;в себе" style="endArrow=open;endSize=12;dashed=1;html=1;rounded=0;entryX=0;entryY=0.5;entryDx=0;entryDy=0;exitX=1;exitY=0.5;exitDx=0;exitDy=0;" edge="1" parent="1" source="XefmnypE6_ZuSq_uZl9b-429" target="XefmnypE6_ZuSq_uZl9b-431">
          <mxGeometry width="160" relative="1" as="geometry">
            <mxPoint x="381" y="3489" as="sourcePoint" />
            <mxPoint x="574" y="3803" as="targetPoint" />
            <mxPoint as="offset" />
          </mxGeometry>
        </mxCell>
        <mxCell id="XefmnypE6_ZuSq_uZl9b-433" value="" style="endArrow=classic;html=1;rounded=0;entryX=1;entryY=1;entryDx=0;entryDy=0;" edge="1" parent="1" target="XefmnypE6_ZuSq_uZl9b-412">
          <mxGeometry width="50" height="50" relative="1" as="geometry">
            <mxPoint x="650" y="3390" as="sourcePoint" />
            <mxPoint x="700" y="3340" as="targetPoint" />
          </mxGeometry>
        </mxCell>
      </root>
    </mxGraphModel>
  </diagram>
</mxfile>
